<?xml version="1.0" standalone="no"?><!DOCTYPE svg PUBLIC "-//W3C//DTD SVG 1.1//EN" "http://www.w3.org/Graphics/SVG/1.1/DTD/svg11.dtd"><svg t="1551335212386" class="icon" style="" viewBox="0 0 1229 1024" version="1.1" xmlns="http://www.w3.org/2000/svg" p-id="16751" xmlns:xlink="http://www.w3.org/1999/xlink" width="240.0390625" height="200"><defs><style type="text/css"></style></defs><path d="M1227.844267 667.648l-13.1072-42.325333a21.504 21.504 0 0 0-26.487467-13.7216l-74.752 9.0112a207.598933 207.598933 0 0 0-34.679467-40.96l24.917334-67.857067a19.933867 19.933867 0 0 0-8.533334-27.648l-40.618666-21.0944a21.845333 21.845333 0 0 0-28.945067 8.192l-46.148267 56.797867a225.0752 225.0752 0 0 0-54.4768-5.5296l-33.723733-67.037867a21.504 21.504 0 0 0-26.487467-13.789867l-44.373333 12.4928a20.2752 20.2752 0 0 0-14.472533 25.258667l9.8304 73.796267a212.992 212.992 0 0 0-42.5984 32.904533l-70.997334-23.825067a21.845333 21.845333 0 0 0-29.013333 8.192l-22.1184 38.775467a19.933867 19.933867 0 0 0 8.533333 27.648l59.5968 44.032a195.925333 195.925333 0 0 0-5.870933 52.360533l-67.925333 31.1296a20.2752 20.2752 0 0 0-14.404267 25.326934l13.1072 42.325333a21.504 21.504 0 0 0 26.487467 13.789867l74.752-9.0112c9.693867 15.018667 21.2992 28.740267 34.679466 40.96l-24.9856 67.857066a19.933867 19.933867 0 0 0 8.6016 27.648l40.618667 21.0944a21.845333 21.845333 0 0 0 28.945067-8.192l46.148266-56.797866c18.090667 4.096 36.727467 6.007467 55.296 5.461333l31.5392 62.6688a21.504 21.504 0 0 0 26.487467 13.789867l44.373333-12.4928a20.2752 20.2752 0 0 0 14.404267-25.326934l-9.147733-68.949333c15.906133-9.216 30.446933-20.48 43.281066-33.245867l71.133867 23.825067a21.845333 21.845333 0 0 0 28.945067-8.192l22.1184-38.775467a19.933867 19.933867 0 0 0-8.533334-27.648l-59.5968-44.032c4.3008-17.134933 6.280533-34.816 5.870934-52.360533l67.857066-31.1296a20.2752 20.2752 0 0 0 14.472534-25.326933z m-296.004267 156.330667c-56.32 1.570133-103.424-40.686933-105.130667-94.481067-1.774933-53.794133 42.461867-98.781867 98.850134-100.352 56.388267-1.706667 103.492267 40.5504 105.198933 94.344533 1.774933 53.794133-42.530133 98.781867-98.9184 100.420267z m-380.040533-97.4848c0 122.538667 64.1024 230.741333 161.9968 295.867733H0c6.144-218.7264 156.740267-401.749333 360.0384-458.069333-106.632533-47.104-180.906667-149.367467-180.906667-268.014934C179.2 133.12 319.419733 0.4096 491.52 0.4096c172.168533 0 312.251733 132.778667 312.251733 295.936 0 33.792-6.007467 66.218667-17.066666 96.4608-137.762133 53.725867-234.837333 182.8864-234.837334 333.687467z" fill="#4E94F5" p-id="16752"></path></svg>