<?xml version="1.0" standalone="no"?><!DOCTYPE svg PUBLIC "-//W3C//DTD SVG 1.1//EN" "http://www.w3.org/Graphics/SVG/1.1/DTD/svg11.dtd"><svg t="1559812960311" class="icon" style="" viewBox="0 0 1024 1024" version="1.1" xmlns="http://www.w3.org/2000/svg" p-id="2102" xmlns:xlink="http://www.w3.org/1999/xlink" width="200" height="200"><defs><style type="text/css"></style></defs><path d="M142.86848 604.40576l526.17216 0 0 105.92256L142.86848 710.32832 142.86848 604.40576 142.86848 604.40576zM142.86848 767.34464l420.864 0 0 105.92256L142.86848 873.2672 142.86848 767.34464 142.86848 767.34464zM945.19296 746.57792l0 158.55616c0 21.83168-17.69472 39.60832-39.36256 39.60832L118.1696 944.7424c-21.74976 0-39.36256-17.77664-39.36256-39.60832l0-158.55616L0 746.57792l0 158.55616C0 970.79296 52.96128 1024 118.1696 1024l787.6608 0C971.03872 1024 1024 970.79296 1024 905.13408l0-158.55616L945.19296 746.57792 945.19296 746.57792zM505.77408 546.89792l-56.60672 0-40.42752-109.24032L243.5072 437.6576l-38.17472 109.24032L148.80768 546.89792 299.8272 147.61984l54.80448 0L505.77408 546.89792 505.77408 546.89792zM392.8064 392.51968 332.92288 226.59072C330.99776 221.22496 328.94976 211.968 326.81984 198.73792L325.50912 198.73792C323.584 210.78016 321.536 220.03712 319.11936 226.59072L259.6864 392.51968 392.8064 392.51968 392.8064 392.51968zM563.07712 546.89792 563.07712 147.70176l113.2544 0c60.08832 0 110.10048 17.6128 149.9136 52.79744 39.936 35.2256 59.8016 82.49344 59.8016 141.84448 0 61.8496-19.8656 111.37024-59.8016 148.72576-39.936 37.2736-91.21792 55.82848-154.05056 55.82848L563.07712 546.89792 563.07712 546.89792zM614.31808 193.57696l0 307.77344 57.58976 0c50.33984 0 89.62048-13.84448 117.9648-41.53344 28.18048-27.648 42.35264-66.39616 42.35264-116.24448 0-49.80736-14.49984-87.28576-43.54048-112.39424-29.04064-25.02656-67.1744-37.60128-114.4832-37.60128L614.31808 193.57696 614.31808 193.57696z" p-id="2103"></path></svg>