<?xml version="1.0" standalone="no"?><!DOCTYPE svg PUBLIC "-//W3C//DTD SVG 1.1//EN" "http://www.w3.org/Graphics/SVG/1.1/DTD/svg11.dtd"><svg t="1551335359179" class="icon" style="" viewBox="0 0 1024 1024" version="1.1" xmlns="http://www.w3.org/2000/svg" p-id="18231" xmlns:xlink="http://www.w3.org/1999/xlink" width="200" height="200"><defs><style type="text/css"></style></defs><path d="M414.29333334 488.25386667l195.47733333 0c54.01386668 0 97.7696-43.75573333 97.7696-97.70666667L707.54026667 195.00693333c0-54.01386668-43.75573333-97.70666667-97.7696-97.70666666L414.29333333 97.30026668c-54.01386668 0-97.7696 43.75573333-97.7696 97.70666665l0 195.54026667c0 53.95093335 43.75573333 97.70666667 97.76960001 97.70666667z m537.86239999 440.15573334L909.92 651.6256l-60.78933333 60.7264-176.10026667-175.71946667-113.34826667 113.15733334 176.03733334 175.71946666-60.78933334 60.7264 277.22666668 42.1728zM342.48533332 546.95466667L171.76746667 717.41973333l-59.01653334-58.89066666-40.90666666 268.36053332 268.80533334-40.90666666-58.95360001-58.89066666 170.71786667-170.46506667-109.92853334-109.67466667z" p-id="18232"></path></svg>