<?xml version="1.0" standalone="no"?><!DOCTYPE svg PUBLIC "-//W3C//DTD SVG 1.1//EN" "http://www.w3.org/Graphics/SVG/1.1/DTD/svg11.dtd"><svg t="1552904724056" class="icon" style="" viewBox="0 0 1024 1024" version="1.1" xmlns="http://www.w3.org/2000/svg" p-id="7919" xmlns:xlink="http://www.w3.org/1999/xlink" width="200" height="200"><defs><style type="text/css"></style></defs><path d="M580.711 58l57.961 57.961-123.48 123.48L414.39 138.64 227.91 325.119l35.279 35.282 151.201-151.2L515.191 310 673.95 151.24l57.961 57.961V58h-151.2z m0 0" p-id="7920"></path><path d="M195.414 608l109.961-286.328h40.82L463.383 608h-43.164l-33.398-86.719H267.094L235.648 608h-40.234z m82.617-117.578h97.07l-29.883-79.297c-9.116-24.087-15.888-43.878-20.313-59.375-3.647 18.359-8.789 36.591-15.43 54.688l-31.444 83.984zM494.242 608V321.672h126.953c25.519 0 44.922 2.573 58.203 7.715 13.281 5.146 23.893 14.228 31.836 27.246 7.94 13.022 11.914 27.411 11.914 43.164 0 20.313-6.576 37.436-19.727 51.367-13.153 13.935-33.466 22.788-60.938 26.563 10.025 4.819 17.643 9.57 22.852 14.258 11.065 10.156 21.549 22.852 31.445 38.086L746.586 608H698.93l-37.891-59.57c-11.068-17.188-20.185-30.338-27.344-39.453-7.162-9.112-13.574-15.494-19.238-19.141-5.664-3.644-11.426-6.183-17.285-7.617-4.297-0.909-11.328-1.367-21.094-1.367h-43.945V608h-37.891z m37.891-159.961h81.445c17.315 0 30.859-1.788 40.625-5.371 9.766-3.58 17.188-9.308 22.266-17.188 5.078-7.876 7.617-16.437 7.617-25.684 0-13.541-4.916-24.673-14.746-33.398-9.833-8.722-25.36-13.086-46.582-13.086h-90.625v94.727zM226.859 915V628.672h108.008c19.009 0 33.526 0.912 43.555 2.734 14.063 2.344 25.845 6.806 35.352 13.379 9.503 6.576 17.154 15.79 22.949 27.637 5.792 11.85 8.691 24.872 8.691 39.063 0 24.35-7.749 44.955-23.242 61.816-15.497 16.864-43.491 25.293-83.984 25.293H264.75V915h-37.891z m37.891-150.195h74.023c24.478 0 41.861-4.557 52.148-13.672 10.284-9.112 15.43-21.939 15.43-38.477 0-11.979-3.027-22.232-9.082-30.762-6.055-8.526-14.032-14.16-23.926-16.895-6.381-1.69-18.164-2.539-35.352-2.539H264.75v102.345zM681.547 628.672h37.891v165.43c0 28.778-3.256 51.63-9.766 68.555-6.513 16.928-18.262 30.697-35.254 41.309-16.992 10.614-39.291 15.918-66.895 15.918-26.825 0-48.764-4.623-65.82-13.867-17.06-9.244-29.232-22.623-36.523-40.137-7.294-17.511-10.938-41.437-10.938-71.777v-165.43h37.891v165.234c0 24.872 2.311 43.197 6.934 54.98 4.62 11.786 12.564 20.868 23.828 27.246 11.261 6.381 25.03 9.57 41.309 9.57 27.862 0 47.721-6.314 59.57-18.945 11.847-12.628 17.773-36.914 17.773-72.852V628.672z" p-id="7921"></path></svg>