<?xml version="1.0" standalone="no"?><!DOCTYPE svg PUBLIC "-//W3C//DTD SVG 1.1//EN" "http://www.w3.org/Graphics/SVG/1.1/DTD/svg11.dtd"><svg t="1552390830355" class="icon" style="" viewBox="0 0 1332 1024" version="1.1" xmlns="http://www.w3.org/2000/svg" p-id="2823" xmlns:xlink="http://www.w3.org/1999/xlink" width="260.15625" height="200"><defs><style type="text/css"></style></defs><path d="M586.49098 657.76087c259.137404-77.73496 478.777559-239.106407 610.088662-462.371046l120.84706 62.266478L1246.710719 0 995.757908 91.916207l122.177643 62.951638c-119.751286 204.076546-320.503179 351.430509-557.379505 422.094713-20.227273 3.439046-35.631935 21.031644-35.631935 42.231868 0 23.666319 19.191706 42.8508 42.86525 42.8508C574.49526 662.045228 580.839914 660.503919 586.49098 657.76087z" p-id="2824"></path><path d="M1283.995949 282.51834c-26.252828 0-47.533731 23.955315-47.533731 53.506304l0 634.469041c0 29.550989 21.282107 53.506304 47.533731 53.506304s47.533731-23.955315 47.533731-53.506304L1331.52968 336.024644C1331.52968 306.473655 1310.247573 282.51834 1283.995949 282.51834z" p-id="2825"></path><path d="M1051.762818 485.412413c-26.252828 0-47.533731 23.955315-47.533731 53.506304l0 431.574968c0 29.550989 21.282107 53.506304 47.533731 53.506304s47.533731-23.955315 47.533731-53.506304L1099.296548 538.917512C1099.296548 509.367727 1078.014442 485.412413 1051.762818 485.412413z" p-id="2826"></path><path d="M819.529686 644.356298c-26.252828 0-47.533731 23.955315-47.533731 53.506304l0 272.631083c0 29.550989 21.282107 53.506304 47.533731 53.506304s47.533731-23.955315 47.533731-53.506304l0-272.631083C867.063417 668.311613 845.78131 644.356298 819.529686 644.356298z" p-id="2827"></path><path d="M587.296554 746.058614c-26.252828 0-47.533731 23.955315-47.533731 53.506304l0 170.928767c0 29.550989 21.282107 53.506304 47.533731 53.506304s47.533731-23.955315 47.533731-53.506304l0-170.928767C634.830285 770.013928 613.549383 746.058614 587.296554 746.058614z" p-id="2828"></path><path d="M355.063423 837.099405c-26.252828 0-47.533731 23.955315-47.533731 53.506304l0 79.887976c0 29.550989 21.282107 53.506304 47.533731 53.506304s47.533731-23.955315 47.533731-53.506304l0-79.887976C402.597154 861.05472 381.316251 837.099405 355.063423 837.099405z" p-id="2829"></path><path d="M355.063423 599.392218c-26.252828 0-47.533731 23.955315-47.533731 53.506304l0 9.464601c0 29.550989 21.282107 53.506304 47.533731 53.506304s47.533731-23.955315 47.533731-53.506304l0-9.464601C402.597154 623.347533 381.316251 599.392218 355.063423 599.392218z" p-id="2830"></path></svg>