<?xml version="1.0" standalone="no"?><!DOCTYPE svg PUBLIC "-//W3C//DTD SVG 1.1//EN" "http://www.w3.org/Graphics/SVG/1.1/DTD/svg11.dtd"><svg t="1552447577766" class="icon" style="" viewBox="0 0 1024 1024" version="1.1" xmlns="http://www.w3.org/2000/svg" p-id="4668" xmlns:xlink="http://www.w3.org/1999/xlink" width="200" height="200"><defs><style type="text/css"></style></defs><path d="M529.7951 648.1428v223.253504c0 3.9311 1.5002 7.8623 4.4995 10.8605s6.9304 4.4995 10.8605 4.4995h112.914432c3.9311 0 7.8623-1.5002 10.8605-4.4995s4.4995-6.9304 4.4995-10.8605V573.879296l-114.8078 98.8303L529.7951 648.1428z" fill="#707070" p-id="4669"></path><path d="M47.2832 871.3974c0 3.9311 1.4991 7.8623 4.4995 10.8605 2.9993 2.9993 6.9304 4.4995 10.8605 4.4995h112.899072c3.9311 0 7.8623-1.5002 10.8605-4.4995 2.9993-2.9993 4.4995-6.9304 4.4995-10.8605V643.649536L47.2832 762.1171V871.3973760000001z" fill="#707070" p-id="4670"></path><path d="M288.51 563.0976v308.297728c0 3.9311 1.4991 7.8623 4.4995 10.8605 2.9993 2.9993 6.9304 4.4995 10.8605 4.4995H416.79872c3.9311 0 7.8623-1.5002 10.8605-4.4995 2.9993-2.9993 4.4995-6.9304 4.4995-10.8605V565.023744l-71.7804-61.1185L288.51 563.0976z" fill="#707070" p-id="4671"></path><path d="M771.0505 871.3974c0 3.9311 1.5002 7.8623 4.4995 10.8605s6.9304 4.4995 10.8605 4.4995h112.96051200000001c3.9311 0 7.8623-1.5002 10.8605-4.4995s4.4995-6.9304 4.4995-10.8605V366.119936L771.0505 489.8324V871.3973760000001z" fill="#707070" p-id="4672"></path><path d="M746.2758 104.4879c-2.0173 0-3.9281 1.1991-4.7391 3.1805s-0.2888 4.1759 1.1489 5.59l107.948 106.1407-292.0141 251.4371-198.2413-168.8576L46.4599 560.937v111.859712l313.9185-258.945 198.2413 168.83 352.7311-303.6498 89.1904 87.7169c1.4275 1.4029 3.6076 1.8934 5.5685 1.0711s3.1406-2.7208 3.1406-4.7217V109.60793600000001c0-1.3107-0.4997-2.6204-1.5002-3.6209-0.9994-0.9994-2.3101-1.4991-3.6198-1.4991H746.27584z" fill="#707070" p-id="4673"></path></svg>