<?xml version="1.0" standalone="no"?><!DOCTYPE svg PUBLIC "-//W3C//DTD SVG 1.1//EN" "http://www.w3.org/Graphics/SVG/1.1/DTD/svg11.dtd"><svg t="1552904162664" class="icon" style="" viewBox="0 0 1024 1024" version="1.1" xmlns="http://www.w3.org/2000/svg" p-id="4897" xmlns:xlink="http://www.w3.org/1999/xlink" width="200" height="200"><defs><style type="text/css"></style></defs><path d="M913.408 645.632h-54.784V472.576c0-16.896-13.824-30.72-30.72-30.72H542.72V378.368h54.784c16.896 0 30.72-13.824 30.72-30.72V149.504c0-16.896-13.824-30.72-30.72-30.72H426.496c-16.896 0-30.72 13.824-30.72 30.72V348.16c0 16.896 13.824 30.72 30.72 30.72H481.28v62.976H196.096c-16.896 0-30.72 13.824-30.72 30.72v173.056H110.592c-16.896 0-30.72 13.824-30.72 30.72v198.656c0 16.896 13.824 30.72 30.72 30.72h171.52c16.896 0 30.72-13.824 30.72-30.72v-198.656c0-16.896-13.824-30.72-30.72-30.72H226.816V503.296H481.28v142.336H426.496c-16.896 0-30.72 13.824-30.72 30.72v198.656c0 16.896 13.824 30.72 30.72 30.72h171.52c16.896 0 30.72-13.824 30.72-30.72v-198.656c0-16.896-13.824-30.72-30.72-30.72H542.72V503.296h254.464v142.336H742.4c-16.896 0-30.72 13.824-30.72 30.72v198.656c0 16.896 13.824 30.72 30.72 30.72h171.52c16.896 0 30.72-13.824 30.72-30.72v-198.656c-0.512-16.896-14.336-30.72-31.232-30.72zM457.216 180.224h110.08V317.44H457.216V180.224zM251.392 843.776H141.312V706.56h110.08v137.216z m315.392 0H457.216V706.56h110.08v137.216z m315.904 0h-110.08V706.56h110.08v137.216z" p-id="4898"></path></svg>