<?xml version="1.0" standalone="no"?><!DOCTYPE svg PUBLIC "-//W3C//DTD SVG 1.1//EN" "http://www.w3.org/Graphics/SVG/1.1/DTD/svg11.dtd"><svg t="1553935570083" class="icon" style="" viewBox="0 0 1024 1024" version="1.1" xmlns="http://www.w3.org/2000/svg" p-id="4872" xmlns:xlink="http://www.w3.org/1999/xlink" width="200" height="200"><defs><style type="text/css"></style></defs><path d="M22.709646 301.745691l474.222269 258.886386a32.424798 32.424798 0 0 0 15.313844 3.88606c5.258214 0 10.516427-1.259514 15.088564-3.88606l479.367843-258.886386a31.856481 31.856481 0 0 0 16.916396-28.344178 32.819036 32.819036 0 0 0-17.372073-28.344178L531.681182 3.430383a32.199519 32.199519 0 0 0-28.917616 0L23.395723 244.939575c-15.774641 8.227799-21.94421 27.658102-13.829051 43.432743a32.885596 32.885596 0 0 0 13.142974 13.373373z m494.456408-233.85483l405.645332 206.422007-410.560507 221.735852-405.414933-221.392813 410.330108-206.765046z m483.479183 412.388338l-94.868006-48.11752-68.351658 36.802376 79.779441 40.688437-410.330108 221.735851-405.640212-221.392813 85.150294-42.977065-68.351658-37.145414L18.02487 480.279199a32.01008 32.01008 0 0 0-14.172089 43.089704 33.023835 33.023835 0 0 0 13.142974 13.716412l474.565307 258.886385a32.424798 32.424798 0 0 0 15.313844 3.886061 31.897441 31.897441 0 0 0 15.088564-3.886061l479.367843-258.886385c15.544242-8.570837 21.258134-28.231539 12.687297-43.775782a32.644957 32.644957 0 0 0-13.373373-13.030334z m0 224.024479l-89.840191-44.006179-68.576937 36.802376 74.976905 36.577097-410.330108 221.735851-405.645332-221.167534 79.323763-36.1163-68.351658-37.375813-94.176809 43.437863c-10.629067 5.370853-17.489833 16.230319-17.602472 28.118899-0.343038 11.888581 6.169569 22.973325 16.573357 28.687217l474.565307 258.886386a32.716636 32.716636 0 0 0 15.313844 4.116459 31.718241 31.718241 0 0 0 15.088564-4.116459l479.367843-258.886386c10.398668-5.601252 16.916395-16.573357 16.573357-28.344178 0.112639-11.888581-6.630367-22.860686-17.259433-28.349299z" p-id="4873"></path></svg>