<?xml version="1.0" standalone="no"?><!DOCTYPE svg PUBLIC "-//W3C//DTD SVG 1.1//EN" "http://www.w3.org/Graphics/SVG/1.1/DTD/svg11.dtd"><svg t="1553935502913" class="icon" style="" viewBox="0 0 1024 1024" version="1.1" xmlns="http://www.w3.org/2000/svg" p-id="4119" xmlns:xlink="http://www.w3.org/1999/xlink" width="200" height="200"><defs><style type="text/css"></style></defs><path d="M1024 876.4416 1024 25.58464l-287.65184 143.82592L281.6 169.41056c-155.27424 0-281.6 126.32576-281.6 281.6 0 149.632 117.40672 272.03072 264.88832 280.75008l102.4512 276.88448 229.52448 0-102.13376-276.03968 241.61792 0L1024 876.4416zM972.8 793.58464l-204.8-102.4L768 210.83648l204.8-102.4L972.8 793.58464zM523.33568 957.45024 402.99008 957.45024l-83.2-224.83968 120.3456 0L523.33568 957.45024zM281.6 681.41056c-127.03744 0-230.4-103.36256-230.4-230.4 0-127.03744 103.36256-230.4 230.4-230.4l435.2 0 0 460.8L475.78624 681.41056 281.6 681.41056z" p-id="4120"></path></svg>