<?xml version="1.0" standalone="no"?><!DOCTYPE svg PUBLIC "-//W3C//DTD SVG 1.1//EN" "http://www.w3.org/Graphics/SVG/1.1/DTD/svg11.dtd"><svg t="1555488987634" class="icon" style="" viewBox="0 0 1237 1024" version="1.1" xmlns="http://www.w3.org/2000/svg" p-id="1968" xmlns:xlink="http://www.w3.org/1999/xlink" width="241.6015625" height="200"><defs><style type="text/css"></style></defs><path d="M1024 853.333333h-170.666667v-85.333333h170.666667v85.333333z m-170.666667-256h170.666667v85.333334h-170.666667v-85.333334z m298.666667 426.666667H0v-85.333333h85.333333V170.666667a170.666667 170.666667 0 0 1 170.666667-170.666667h384a170.666667 170.666667 0 0 1 170.666667 170.666667v768h256v-341.333334a85.333333 85.333333 0 0 0-85.333334-85.333333h-170.666666v-85.333333h170.666666a170.666667 170.666667 0 0 1 170.666667 170.666666v341.333334h85.333333v85.333333h-85.333333z m-426.666667-170.666667V170.666667a85.333333 85.333333 0 0 0-85.333333-85.333334H256a85.589333 85.589333 0 0 0-85.333333 85.333334v768h554.666666v-85.333334z m-256-42.666666v-85.333334h170.666667v85.333334h-170.666667z m0-341.333334h170.666667v85.333334h-170.666667v-85.333334z m0-256h170.666667v85.333334h-170.666667V213.333333zM256 725.333333h170.666667v85.333334H256v-85.333334z m0-256h170.666667v85.333334H256v-85.333334z m0-256h170.666667v85.333334H256V213.333333z m0 0" p-id="1969"></path></svg>