<?xml version="1.0" standalone="no"?><!DOCTYPE svg PUBLIC "-//W3C//DTD SVG 1.1//EN" "http://www.w3.org/Graphics/SVG/1.1/DTD/svg11.dtd"><svg t="1551325742468" class="icon" style="" viewBox="0 0 1024 1024" version="1.1" xmlns="http://www.w3.org/2000/svg" p-id="9339" xmlns:xlink="http://www.w3.org/1999/xlink" width="200" height="200"><defs><style type="text/css"></style></defs><path d="M352 304c0 13.248 5.376 25.248 14.064 33.936l112 112c8.688 8.688 20.688 14.064 33.936 14.064s25.248-5.376 33.936-14.064l112-112a48 48 0 1 0-67.872-67.872L560 300.128V80a48 48 0 1 0-96 0v220.112l-30.064-30.064A48 48 0 0 0 352 304zM960 96H608v64h336v544H80V160h336V96H64a48 48 0 0 0-48 48v640a48 48 0 0 0 48 48h304v80l-64 64v16h416v-16l-64-64v-80h304a48 48 0 0 0 48-48V144a48 48 0 0 0-48-48z" p-id="9340"></path></svg>