<?xml version="1.0" standalone="no"?><!DOCTYPE svg PUBLIC "-//W3C//DTD SVG 1.1//EN" "http://www.w3.org/Graphics/SVG/1.1/DTD/svg11.dtd"><svg t="1551335480385" class="icon" style="" viewBox="0 0 1127 1024" version="1.1" xmlns="http://www.w3.org/2000/svg" p-id="18973" xmlns:xlink="http://www.w3.org/1999/xlink" width="220.1171875" height="200"><defs><style type="text/css"></style></defs><path d="M0 512.7168c0 101.632 76.0832 185.9584 176.0256 202.24l35.2256 2.816 196.1984 0 0-50.8416L213.6576 666.9312 190.3104 665.088c-67.4816-10.752-142.0288-90.7776-142.0288-156.2112 0-51.0976 43.5712-133.0176 127.744-162.0992L159.0784 302.5408C155.136 294.0416 153.1392 284.9792 153.1392 275.5584c0-36.7616 37.1712-91.392 95.488-91.392 20.0192 0 43.4688 9.984 56.8832 24.1664l55.04 38.2464 46.7968-62.4128c52.992-79.0016 142.3872-133.3248 243.2-133.3248 142.1824 0 282.5216 135.5264 284.7744 271.0016l0 48.0256 49.5104 13.2608c55.808 18.7904 93.2352 69.3248 93.2352 125.7472 0 65.3824-66.9696 147.3024-134.4512 158.0544l-30.976 0-192.4096 0 0 50.8416 194.8672 0 35.2256-2.816C1050.3168 698.6752 1126.4 614.3488 1126.4 512.7168c0-89.2928-58.7776-165.3248-140.8512-193.4336C982.5792 142.4384 833.9968 0 651.2128 0c-131.84 0-245.8624 74.0864-300.3392 181.76C325.12 154.112 287.8464 136.704 246.3744 136.704c-77.7728 0-140.8 61.2352-140.8 136.704 0 19.712 4.3008 38.4512 11.9808 55.3472C47.9232 362.2912 0 432.0768 0 512.7168zM537.7024 307.2 537.7024 960 307.2 819.2 307.2 870.4 563.2 1024 819.2 870.4 819.2 819.2 588.8 960 588.8 307.2Z" p-id="18974"></path></svg>