<?xml version="1.0" standalone="no"?><!DOCTYPE svg PUBLIC "-//W3C//DTD SVG 1.1//EN" "http://www.w3.org/Graphics/SVG/1.1/DTD/svg11.dtd"><svg t="1552355446479" class="icon" style="" viewBox="0 0 1024 1024" version="1.1" xmlns="http://www.w3.org/2000/svg" p-id="2565" xmlns:xlink="http://www.w3.org/1999/xlink" width="200" height="200"><defs><style type="text/css"></style></defs><path d="M670.144 714.816H531.648v-49.792h138.496a22.976 22.976 0 0 0 0-45.952h-106.24l106.624-149.504a22.976 22.976 0 1 0-39.744-22.976L508.672 617.792 386.56 446.592a22.976 22.976 0 1 0-39.808 23.04L453.376 619.008H347.2a22.976 22.976 0 0 0 0 45.952h138.496v49.792H347.136a22.976 22.976 0 0 0 0 45.952h138.496v94.4a22.976 22.976 0 0 0 45.952 0v-94.4h138.496a22.976 22.976 0 0 0 0-45.952zM669.056 308.288c8.256-11.456 13.312-22.784 13.312-22.784l72.768-193.984a45.952 45.952 0 0 0-45.952-45.952s-0.512-0.64-4.8-0.64c-2.176 0-5.248 0.192-9.6 0.64-13.248 1.28-43.072 51.648-78.08 51.648-35.136 0-60.928-31.232-78.08-51.648a39.68 39.68 0 0 0-31.232-13.952 60.288 60.288 0 0 0-37.248 13.952c-20.288 16.576-43.072 51.648-78.08 51.648-35.136 0-65.728-50.048-78.08-51.648A74.432 74.432 0 0 0 304.64 44.8c-4.288 0-5.12 0.64-5.12 0.64-25.408 0-51.52 20.48-45.952 46.016 5.504 25.536 77.824 193.984 77.824 193.984s6.144 13.696 15.872 26.176C181.632 379.84 64.448 543.552 64.448 706.304c0 212.864 200.64 299.072 448 299.072 247.488 0 448-86.208 448-299.072 0-165.504-121.152-332.032-291.328-398.08z m-295.68-41.408A4663.68 4663.68 0 0 1 303.296 96c18.688 18.56 48.768 47.168 88.768 47.168 45.568 0 75.328-30.272 95.04-50.304 4.672-4.736 9.024-9.152 12.16-11.776a16.64 16.64 0 0 1 6.464-3.2c20.096 23.808 56.448 65.28 110.976 65.28 39.488 0 68.992-27.904 87.424-46.272l-64 170.816a325.376 325.376 0 0 1-16.256 25.728 429.12 429.12 0 0 0-233.984 3.2c-6.4-10.88-14.464-25.6-16.448-29.76z m512.384 552.384c-17.92 30.144-44.864 56-80 76.864-69.696 41.408-171.136 63.296-293.312 63.296-122.24 0-223.68-21.888-293.312-63.296-35.2-20.864-62.08-46.72-80-76.8-19.072-32-28.8-70.016-28.8-113.024a332.8 332.8 0 0 1 31.168-137.664 419.2 419.2 0 0 1 86.464-123.328 423.424 423.424 0 0 1 128.512-87.68 386.944 386.944 0 0 1 155.968-32.96c53.376 0 105.856 11.072 155.968 33.024a423.424 423.424 0 0 1 128.448 87.616 419.264 419.264 0 0 1 86.528 123.328 332.8 332.8 0 0 1 31.104 137.6c0 43.072-9.664 81.088-28.8 113.024z" p-id="2566"></path></svg>