<?xml version="1.0" standalone="no"?><!DOCTYPE svg PUBLIC "-//W3C//DTD SVG 1.1//EN" "http://www.w3.org/Graphics/SVG/1.1/DTD/svg11.dtd"><svg t="1552904654832" class="icon" style="" viewBox="0 0 1024 1024" version="1.1" xmlns="http://www.w3.org/2000/svg" p-id="7518" xmlns:xlink="http://www.w3.org/1999/xlink" width="200" height="200"><defs><style type="text/css"></style></defs><path d="M694.888243 237.568a329.3184 329.3184 0 1 1-233.0624 96.4608 327.68 327.68 0 0 1 233.0624-96.4608zM46.491443 128h601.4976a46.8992 46.8992 0 0 1 46.8992 46.6944v20.48a370.4832 370.4832 0 0 0-212.5824 66.56H46.491443A46.4896 46.4896 0 0 1 0.001843 214.8352v-40.96a46.6944 46.6944 0 0 1 46.4896-45.8752z m0 499.0976H327.681843a367.4112 367.4112 0 0 0 49.5616 133.3248H46.491443A46.4896 46.4896 0 0 1 0.001843 713.9328v-40.96a46.8992 46.8992 0 0 1 46.4896-46.8992z m0-166.5024h291.6352a372.3264 372.3264 0 0 0-15.36 106.0864V593.92H46.491443A46.4896 46.4896 0 0 1 0.001843 547.4304v-39.936a46.8992 46.8992 0 0 1 46.4896-46.8992z m0-166.0928h394.6496a374.9888 374.9888 0 0 0-91.5456 133.3248H46.491443A46.8992 46.8992 0 0 1 0.001843 380.928v-40.96a46.4896 46.4896 0 0 1 46.4896-46.4896z m556.6464 351.8464c0-10.0352-4.7104-18.6368-20.48-18.6368-11.6736 0-20.48 6.3488-20.48 17.6128 4.9152 68.608 56.32 100.5568 114.4832 107.52v22.1184c0 12.9024 9.216 15.9744 18.2272 15.9744s17.8176-3.072 17.8176-15.9744v-20.48c61.44-4.9152 115.5072-40.96 115.5072-111.8208s-58.1632-91.136-115.5072-105.2672V409.6a72.0896 72.0896 0 0 1 65.536 52.4288 21.504 21.504 0 0 0 22.7328 17.2032c16.384 0 20.48-7.3728 17.8176-20.48-10.0352-57.344-50.5856-83.3536-105.6768-88.6784v-18.2272c0-12.4928-9.0112-15.5648-17.8176-15.5648s-18.2272 3.072-18.2272 15.5648v18.2272C622.184243 374.1696 573.441843 406.7328 573.441843 471.04c0 67.7888 52.4288 85.8112 104.2432 99.1232v144.7936c-39.5264-6.3488-70.8608-30.1056-73.5232-67.7888z m109.568 68.1984v-135.9872c32.768 10.24 69.0176 27.2384 69.0176 67.584a70.2464 70.2464 0 0 1-69.0176 68.4032zM675.841843 407.7568v118.9888c-29.0816-9.4208-58.1632-26.0096-58.1632-58.7776A61.44 61.44 0 0 1 675.841843 407.7568z m212.992-35.0208a274.8416 274.8416 0 1 0 80.0768 193.9456 274.8416 274.8416 0 0 0-80.0768-193.9456z" p-id="7519"></path></svg>