<?xml version="1.0" standalone="no"?><!DOCTYPE svg PUBLIC "-//W3C//DTD SVG 1.1//EN" "http://www.w3.org/Graphics/SVG/1.1/DTD/svg11.dtd"><svg t="1562033157323" class="icon" viewBox="0 0 1024 1024" version="1.1" xmlns="http://www.w3.org/2000/svg" p-id="2948" xmlns:xlink="http://www.w3.org/1999/xlink" width="200" height="200"><defs><style type="text/css"></style></defs><path d="M648.484571 512L994.742857 165.814857A94.281143 94.281143 0 0 0 994.742857 29.257143a94.281143 94.281143 0 0 0-136.557714 0L512 375.442286 165.814857 29.257143A94.281143 94.281143 0 0 0 29.257143 29.257143a94.354286 94.354286 0 0 0 0 136.557714L375.442286 512 29.257143 858.185143a94.281143 94.281143 0 0 0 0 136.557714c19.529143 19.529143 43.885714 29.257143 68.242286 29.257143 24.429714 0 48.786286-9.728 68.315428-29.257143L512 648.557714l346.185143 346.185143c19.529143 19.529143 43.885714 29.257143 68.315428 29.257143 24.356571 0 48.713143-9.728 68.242286-29.257143a94.281143 94.281143 0 0 0 0-136.557714L648.557714 512z" fill="#CB1818" p-id="2949"></path></svg>