<?xml version="1.0" standalone="no"?><!DOCTYPE svg PUBLIC "-//W3C//DTD SVG 1.1//EN" "http://www.w3.org/Graphics/SVG/1.1/DTD/svg11.dtd"><svg t="1551325105332" class="icon" style="" viewBox="0 0 1024 1024" version="1.1" xmlns="http://www.w3.org/2000/svg" p-id="3565" xmlns:xlink="http://www.w3.org/1999/xlink" width="200" height="200"><defs><style type="text/css"></style></defs><path d="M0 0v1024h1024V0H0z m944 944h-864v-864h867.2v864zM905.6 118.4H118.4V512h787.2V118.4z m-38.4 355.2H156.8V156.8h710.4v316.8zM236.8 198.4h236.8v80H236.8V198.4z m313.6 0h236.8v80h-236.8V198.4z m0 156.8h236.8v80h-236.8v-80z m-313.6 0h236.8v80H236.8v-80z m-118.4 195.2H512v38.4H118.4v-38.4z m0 80h275.2v38.4H118.4v-38.4z m0 80h355.2v38.4H118.4v-38.4z m0 76.8h198.4v38.4H118.4v-38.4z m0 80h313.6v38.4H118.4v-38.4z m630.4-198.4h-198.4v118.4h198.4v80l156.8-137.6-156.8-137.6v76.8z" fill="#666666" p-id="3566"></path></svg>