<?xml version="1.0" standalone="no"?><!DOCTYPE svg PUBLIC "-//W3C//DTD SVG 1.1//EN" "http://www.w3.org/Graphics/SVG/1.1/DTD/svg11.dtd"><svg t="1546594159736" class="icon" style="" viewBox="0 0 1024 1024" version="1.1" xmlns="http://www.w3.org/2000/svg" p-id="5509" xmlns:xlink="http://www.w3.org/1999/xlink" width="200" height="200"><defs><style type="text/css"></style></defs><path d="M686 64H338c-46.869 0-85 38.131-85 85v726c0 46.869 38.131 85 85 85h348c46.869 0 85-38.131 85-85V149c0-46.869-38.131-85-85-85z m35 811c0 19.33-15.67 35-35 35H338c-19.33 0-35-15.67-35-35V149c0-19.33 15.67-35 35-35h92.439v5c0 19.33 15.67 35 35 35h93.122c19.33 0 35-15.67 35-35v-5H686c19.33 0 35 15.67 35 35v726z" fill="" p-id="5510"></path><path d="M572 829.996H452c-11.046 0-20 8.954-20 20s8.954 20 20 20h120c11.046 0 20-8.954 20-20s-8.954-20-20-20zM451.896 362.628c-3.905-3.905-9.024-5.858-14.142-5.858s-10.237 1.953-14.142 5.858c-7.81 7.81-7.81 20.474 0 28.284l148.492 148.493c3.905 3.905 9.024 5.858 14.142 5.858s10.237-1.953 14.142-5.858c7.81-7.81 7.81-20.474 0-28.284L451.896 362.628zM480.18 551.23a19.939 19.939 0 0 0 14.142-5.858c7.81-7.81 7.811-20.474 0-28.284l-42.427-42.427a19.934 19.934 0 0 0-14.142-5.858 19.939 19.939 0 0 0-14.142 5.858c-7.81 7.81-7.81 20.474 0 28.284l42.427 42.427a19.934 19.934 0 0 0 14.142 5.858z" fill="" p-id="5511"></path></svg>