<?xml version="1.0" standalone="no"?><!DOCTYPE svg PUBLIC "-//W3C//DTD SVG 1.1//EN" "http://www.w3.org/Graphics/SVG/1.1/DTD/svg11.dtd"><svg t="1553683086077" class="icon" style="" viewBox="0 0 1024 1024" version="1.1" xmlns="http://www.w3.org/2000/svg" p-id="2559" xmlns:xlink="http://www.w3.org/1999/xlink" width="200" height="200"><defs><style type="text/css"></style></defs><path d="M48.7424 306.63168l71.65184 0.00256c18.91328-34.01216 42.65984-65.60256 70.93504-93.88032 79.78496-79.77984 185.85856-123.71968 298.68288-123.71968 112.832 0 218.90304 43.93984 298.68288 123.71968s123.71968 185.85088 123.71968 298.68288c0 112.82432-43.93984 218.90048-123.71968 298.68032s-185.85088 123.71712-298.68032 123.71712c-112.82688 0-218.90048-43.93728-298.68288-123.71712-28.27776-28.27776-52.02688-59.87072-70.93504-93.88288H48.73984c77.312 166.28992 245.81376 281.6 441.27232 281.6 268.6336 0 486.40256-217.7664 486.40256-486.4 0-268.63104-217.76896-486.4-486.40256-486.4-195.456 0-363.96032 115.31008-441.26976 281.59744z" p-id="2560"></path><path d="M769.50272 664.75008c16.16384 0.11776 29.2224 13.2224 29.27872 29.38624 0 16.66304-13.248 29.92384-29.27872 29.92384H345.29536c-16.01536 0-29.26336-13.25056-29.26336-29.91872 0.05376-16.16128 13.10464-29.26336 29.26336-29.38624h424.20736v-0.00512zM232.05632 317.952c20.99968 0 37.57312 17.23136 37.57312 37.81376 0 21.14048-16.56832 37.82656-37.56032 37.82656-20.8128-0.0896-37.62176-17.01376-37.568-37.82656 0-20.57472 17.12384-37.81376 37.568-37.81376h-0.0128z m113.23904 72.00256c-16.01536 0-29.26336-13.51936-29.26336-29.6576 0-16.128 13.248-29.64736 29.26336-29.64736h424.20736c16.0256 0 29.27872 13.51936 29.27872 29.64736 0 16.14336-13.248 29.6576-29.27872 29.6576H345.29536z m0 177.89184c-16.01536 0-29.26336-13.50912-29.26336-29.64736 0-16.12544 13.248-29.64736 29.26336-29.64736h424.20736c16.0256 0 29.27872 13.52192 29.27872 29.64736 0 16.13824-13.248 29.64736-29.27872 29.64736H345.29536z m-113.22624-78.03136c20.98176 0 37.56032 16.6912 37.56032 37.82656 0 20.5824-16.56832 37.81376-37.56032 37.81376-20.43648 0-37.568-17.23136-37.568-37.81376-0.05376-20.80768 16.74752-37.72928 37.5552-37.82656h0.0128z m0 171.3024c20.98176 0 37.56032 17.24672 37.56032 37.824 0 21.14304-16.56832 37.824-37.56032 37.824-20.8128-0.08704-37.62432-17.0112-37.568-37.824 0-20.57728 17.11104-37.824 37.5552-37.824h0.0128z" p-id="2561"></path></svg>