<?xml version="1.0" standalone="no"?><!DOCTYPE svg PUBLIC "-//W3C//DTD SVG 1.1//EN" "http://www.w3.org/Graphics/SVG/1.1/DTD/svg11.dtd"><svg t="1552041537273" class="icon" style="" viewBox="0 0 1024 1024" version="1.1" xmlns="http://www.w3.org/2000/svg" p-id="2662" xmlns:xlink="http://www.w3.org/1999/xlink" width="200" height="200"><defs><style type="text/css"></style></defs><path d="M1.950422 480.229412l170.337503 0 0 56.779168L1.950422 537.00858 1.950422 480.229412zM285.847284 480.229412l736.084615 0 0 56.779168-736.084615 0L285.847284 480.229412 285.847284 480.229412zM1.950422 44.921095l170.337503 0 0 56.779168L1.950422 101.700263 1.950422 44.921095zM285.847284 915.537729l736.084615 0 0 56.779168-736.084615 0L285.847284 915.537729 285.847284 915.537729zM285.847284 44.921095l736.084615 0 0 56.779168-736.084615 0L285.847284 44.921095 285.847284 44.921095zM1.950422 915.537729l170.337503 0 0 56.779168L1.950422 972.316897 1.950422 915.537729z" p-id="2663"></path></svg>