<?xml version="1.0" standalone="no"?><!DOCTYPE svg PUBLIC "-//W3C//DTD SVG 1.1//EN" "http://www.w3.org/Graphics/SVG/1.1/DTD/svg11.dtd"><svg t="1551335644299" class="icon" style="" viewBox="0 0 1024 1024" version="1.1" xmlns="http://www.w3.org/2000/svg" p-id="2147" xmlns:xlink="http://www.w3.org/1999/xlink" width="200" height="200"><defs><style type="text/css"></style></defs><path d="M412.16 474.624h-256a81.92 81.92 0 0 1-81.92-81.92v-256a81.92 81.92 0 0 1 81.92-81.92h256a81.92 81.92 0 0 1 81.92 81.92v256a81.92 81.92 0 0 1-81.92 81.92z m-256-358.4a20.48 20.48 0 0 0-20.48 20.48v256a20.48 20.48 0 0 0 20.48 20.48h256a20.48 20.48 0 0 0 20.48-20.48v-256a20.48 20.48 0 0 0-20.48-20.48zM945.664 193.024h-358.4a30.72 30.72 0 0 1 0-61.44h358.4a30.72 30.72 0 0 1 0 61.44zM945.664 397.824h-358.4a30.72 30.72 0 0 1 0-61.44h358.4a30.72 30.72 0 0 1 0 61.44zM412.16 963.072h-256a81.92 81.92 0 0 1-81.92-81.92v-256a81.92 81.92 0 0 1 81.92-81.92h256a81.92 81.92 0 0 1 81.92 81.92v256a81.92 81.92 0 0 1-81.92 81.92z m-256-358.4a20.48 20.48 0 0 0-20.48 20.48v256a20.48 20.48 0 0 0 20.48 20.48h256a20.48 20.48 0 0 0 20.48-20.48v-256a20.48 20.48 0 0 0-20.48-20.48zM945.664 681.472h-358.4a30.72 30.72 0 0 1 0-61.44h358.4a30.72 30.72 0 0 1 0 61.44zM945.664 886.272h-358.4a30.72 30.72 0 0 1 0-61.44h358.4a30.72 30.72 0 0 1 0 61.44z" fill="" p-id="2148"></path></svg>