<?xml version="1.0" standalone="no"?><!DOCTYPE svg PUBLIC "-//W3C//DTD SVG 1.1//EN" "http://www.w3.org/Graphics/SVG/1.1/DTD/svg11.dtd"><svg t="1551334810930" class="icon" style="" viewBox="0 0 1024 1024" version="1.1" xmlns="http://www.w3.org/2000/svg" p-id="12893" xmlns:xlink="http://www.w3.org/1999/xlink" width="200" height="200"><defs><style type="text/css"></style></defs><path d="M704.1 63.9H671v99.5h33.2V63.9zM637.8 97H389v33.2h248.8V97z m182.4 49.8h-82.9v16.6h82.9v-16.6z m-182.4 0H389v16.6h248.8v-16.6z m-348.3 0h-82.9v16.6h82.9v-16.6zM737.3 97v33.2h99.5v796.1H190V130.2h99.5V97H156.8v862.4H870V97H737.3zM355.9 63.9h-33.2v99.5h33.2V63.9z m124.3 211.8H262v233.9h218.2V275.7z m-31.4 202.4H293.5v-171h155.3v171z m315.7-202.7H532.8v31.5h231.8v-31.5z m0 146.4H532.8v31.5h231.8v-31.5zM480.2 584.4H262v233.9h218.2V584.4z m-31.4 202.5H293.5v-171h155.3v171z m315.7-202.7H532.8v31.5h231.8v-31.5zM532.8 762h231.8v-31.5H532.8V762z" fill="" p-id="12894"></path></svg>