<?xml version="1.0" standalone="no"?><!DOCTYPE svg PUBLIC "-//W3C//DTD SVG 1.1//EN" "http://www.w3.org/Graphics/SVG/1.1/DTD/svg11.dtd"><svg t="1551334857760" class="icon" style="" viewBox="0 0 1024 1024" version="1.1" xmlns="http://www.w3.org/2000/svg" p-id="13024" xmlns:xlink="http://www.w3.org/1999/xlink" width="200" height="200"><defs><style type="text/css"></style></defs><path d="M511.994 1015.222c-277.916 0-503.216-225.242-503.216-503.216s225.299-503.228 503.216-503.228 503.194 225.299 503.194 503.17-225.242 503.274-503.194 503.274zM738.218 307.327h-449.361c-0.167-0.004-0.362-0.006-0.558-0.006-15.301 0-27.704 12.404-27.704 27.704 0 15.301 12.404 27.704 27.704 27.704 0.197 0 0.392-0.002 0.588-0.006h449.331c0.167 0.004 0.362 0.006 0.558 0.006 15.301 0 27.704-12.404 27.704-27.704 0-15.301-12.404-27.704-27.704-27.704-0.197 0-0.392 0.002-0.588 0.006zM738.218 485.843h-449.361c-0.167-0.004-0.362-0.006-0.558-0.006-15.301 0-27.704 12.404-27.704 27.704 0 15.301 12.404 27.704 27.704 27.704 0.197 0 0.392-0.002 0.588-0.006h449.331c0.167 0.004 0.362 0.006 0.558 0.006 15.301 0 27.704-12.404 27.704-27.704 0-15.301-12.404-27.704-27.704-27.704-0.197 0-0.392 0.002-0.588 0.006zM738.218 664.36h-449.361c-0.167-0.004-0.362-0.006-0.558-0.006-15.301 0-27.704 12.404-27.704 27.704 0 15.301 12.404 27.704 27.704 27.704 0.197 0 0.392-0.002 0.588-0.006h449.331c0.167 0.004 0.362 0.006 0.558 0.006 15.301 0 27.704-12.404 27.704-27.704 0-15.301-12.404-27.704-27.704-27.704-0.197 0-0.392 0.002-0.588 0.006z" fill="" p-id="13025"></path></svg>