<?xml version="1.0" standalone="no"?><!DOCTYPE svg PUBLIC "-//W3C//DTD SVG 1.1//EN" "http://www.w3.org/Graphics/SVG/1.1/DTD/svg11.dtd"><svg t="1552900526414" class="icon" style="" viewBox="0 0 1024 1024" version="1.1" xmlns="http://www.w3.org/2000/svg" p-id="3123" xmlns:xlink="http://www.w3.org/1999/xlink" width="200" height="200"><defs><style type="text/css"></style></defs><path d="M25.94403028-18.24287605h972.11193944c73.21218045 0 132.56071902 59.34853857 132.56071902 132.56071902v795.36431406c0 73.21218045-59.34853857 132.56071902-132.56071902 132.56071902H25.94403028c-73.21218045 0-132.56071902-59.34853857-132.56071902-132.56071902V114.31784297c0-73.21218045 59.34853857-132.56071902 132.56071902-132.56071902z m640.7101419 605.70858871v88.37381268h309.30834435v-88.37381268h-309.30834435z m-88.37381268-265.18219503v88.37381268h397.68215703v-88.37381268h-397.68215703z m-218.79146672 228.36897869H237.33971357c-104.55726711 0-189.30223011 86.85488777-189.3022301 194.03575246v12.49937111c0 43.77817746 84.744963 43.84445781 189.3022301 43.84445782h122.14917921c104.53517366 0 189.30223011-1.60729872 189.30223011-43.84445782v-12.49937111c0-107.18086468-84.75048636-194.03575245-189.30223011-194.03575246z m81.40332819-194.75378969c0-80.64662743-63.78932266-146.03772545-142.48067948-146.03772544-78.66926336 0-142.47515612 65.36900457-142.47515612 146.03772544s63.78932266 146.06534226 142.47515612 146.06534227c78.69135682 0 142.48067948-65.39662137 142.48067948-146.05981889z" fill="#dddddd" p-id="3124"></path></svg>