<?xml version="1.0" standalone="no"?><!DOCTYPE svg PUBLIC "-//W3C//DTD SVG 1.1//EN" "http://www.w3.org/Graphics/SVG/1.1/DTD/svg11.dtd"><svg t="1559813024930" class="icon" style="" viewBox="0 0 1119 1024" version="1.1" xmlns="http://www.w3.org/2000/svg" p-id="2860" xmlns:xlink="http://www.w3.org/1999/xlink" width="218.5546875" height="200"><defs><style type="text/css"></style></defs><path d="M1025.09285 829.472785H93.985059a94.094344 94.094344 0 0 1-93.985059-93.985058V93.985059A94.094344 94.094344 0 0 1 93.985059 0h931.107791a94.094344 94.094344 0 0 1 93.985058 93.985059v641.502668a94.094344 94.094344 0 0 1-93.985058 93.985058zM93.985059 78.685165a15.507535 15.507535 0 0 0-15.299894 15.299894v641.502668a15.507535 15.507535 0 0 0 15.299894 15.299893h931.107791a15.507535 15.507535 0 0 0 15.299893-15.299893V93.985059a15.507535 15.507535 0 0 0-15.299893-15.299894zM765.694088 1024h-413.097119a39.342583 39.342583 0 1 1 0-78.685165h413.097119a39.342583 39.342583 0 0 1 0 78.685165z" p-id="2861"></path><path d="M808.16222 622.924226h-497.246532a32.785486 32.785486 0 0 1 0-65.570971h497.246532a32.785486 32.785486 0 0 1 0 65.570971z" p-id="2862"></path><path d="M550.49016 492.558207h-43.976265l-31.44128-84.357054H346.728367l-29.649007 84.357054h-43.954408l117.393895-308.183565h42.621132z m-87.744888-119.186169l-46.555389-128.136606q-2.185699-6.163671-4.775753-21.485421h-0.994493q-2.185699 13.933831-4.972465 21.485421l-46.172892 128.136606zM595.056564 492.558207v-308.183565h87.9416q70.029797 0 116.497759 40.785145t46.457033 109.427022q0 71.625358-46.457033 114.7492t-119.677951 43.222198z m39.790651-272.786169v237.563629h44.80683q58.696948 0 91.624504-32.031419t32.927556-89.733874q0-57.702455-33.878336-86.750395t-88.925165-29.047941z" p-id="2863"></path></svg>