<?xml version="1.0" standalone="no"?><!DOCTYPE svg PUBLIC "-//W3C//DTD SVG 1.1//EN" "http://www.w3.org/Graphics/SVG/1.1/DTD/svg11.dtd"><svg t="1552904390535" class="icon" style="" viewBox="0 0 1024 1024" version="1.1" xmlns="http://www.w3.org/2000/svg" p-id="5762" xmlns:xlink="http://www.w3.org/1999/xlink" width="200" height="200"><defs><style type="text/css"></style></defs><path d="M395.775705 467.845969H135.393476c-39.844497 0-72.269922-32.425424-72.269922-72.269922V218.62921c0-85.865071 69.841266-155.706337 155.706337-155.706337H395.775705c39.844497 0 72.269922 32.425424 72.269922 72.269921v260.38223c0 39.845521-32.425424 72.270946-72.269922 72.270945zM218.829891 101.487513c-64.58771 0-117.141696 52.55501-117.141696 117.141697v176.946837c0 18.585566 15.120738 33.706305 33.706305 33.706305H395.775705c18.585566 0 33.706305-15.120738 33.706305-33.706305V135.193818c0-18.585566-15.120738-33.706305-33.706305-33.706305H218.829891zM389.091782 959.556658H142.078423c-43.535604 0-78.954869-35.419265-78.954869-78.954869V633.607884c0-43.554034 35.419265-78.973299 78.954869-78.973299h247.013359c43.535604 0 78.954869 35.419265 78.954869 78.973299v246.994928c-0.001024 43.53458-35.420289 78.953845-78.954869 78.953846zM142.078423 593.198202c-22.275649 0-40.390228 18.133009-40.390228 40.409682v246.994928c0 22.275649 18.114579 40.390228 40.390228 40.390229h247.013359c22.275649 0 40.390228-18.114579 40.390228-40.390229V633.607884c0-22.275649-18.114579-40.409682-40.390228-40.409682H142.078423zM869.428128 467.845969H645.18086c-49.824308 0-90.346617-40.52231-90.346617-90.328187V153.270514c0-49.824308 40.52231-90.346617 90.346617-90.346617h224.247268c49.805878 0 90.328187 40.52231 90.328187 90.346617v224.247268c0 49.805878-40.52231 90.328187-90.328187 90.328187zM645.18086 101.487513c-28.545923 0-51.783 23.236054-51.783001 51.783001v224.247268c0 28.546947 23.236054 51.763546 51.783001 51.763546h224.247268c28.545923 0 51.763546-23.217624 51.763547-51.763546V153.270514c0-28.546947-23.217624-51.783-51.763547-51.783001H645.18086zM880.80247 959.556658H633.789112c-43.535604 0-78.954869-35.419265-78.954869-78.954869V633.607884c0-43.554034 35.419265-78.973299 78.954869-78.973299h247.013358c43.535604 0 78.954869 35.419265 78.954869 78.973299v246.994928c-0.001024 43.53458-35.420289 78.953845-78.954869 78.953846zM633.789112 593.198202c-22.275649 0-40.390228 18.133009-40.390229 40.409682v246.994928c0 22.275649 18.114579 40.390228 40.390229 40.390229h247.013358c22.275649 0 40.390228-18.114579 40.390228-40.390229V633.607884c0-22.275649-18.114579-40.409682-40.390228-40.409682H633.789112z" fill="#3A3A3A" p-id="5763"></path><path d="M166.802182 279.846289c-7.984258 0-14.461356-6.477099-14.461356-14.461356v-11.429632c0-70.876414 45.813749-114.901435 119.551922-114.901435h17.266802c7.984258 0 14.461356 6.477099 14.461356 14.461356s-6.477099 14.461356-14.461356 14.461357h-17.266802c-57.601741 0-90.62921 31.332939-90.62921 85.978722v11.429632c0 7.984258-6.478122 14.461356-14.461356 14.461356z" fill="#3A3A3A" p-id="5764"></path></svg>