<?xml version="1.0" standalone="no"?><!DOCTYPE svg PUBLIC "-//W3C//DTD SVG 1.1//EN" "http://www.w3.org/Graphics/SVG/1.1/DTD/svg11.dtd"><svg t="1552904462710" class="icon" style="" viewBox="0 0 1048 1024" version="1.1" xmlns="http://www.w3.org/2000/svg" p-id="5890" xmlns:xlink="http://www.w3.org/1999/xlink" width="204.6875" height="200"><defs><style type="text/css"></style></defs><path d="M386.157338 1023.993468H110.276326A109.122851 109.122851 0 0 1 0.000768 916.407558v-268.964774A109.122851 109.122851 0 0 1 110.276326 537.935697h275.881012a109.122851 109.122851 0 0 1 110.275557 107.970145v268.964775a109.122851 109.122851 0 0 1-110.275557 109.122851z m55.329896-377.319155a54.561426 54.561426 0 0 0-55.329896-53.792955H110.276326a54.561426 54.561426 0 0 0-55.329896 53.792955v268.964774a54.561426 54.561426 0 0 0 55.329896 53.792955h275.881012a54.561426 54.561426 0 0 0 55.329896-53.792955zM937.919361 1023.993468h-275.881012a109.122851 109.122851 0 0 1-110.275557-107.970145v-268.964775A109.122851 109.122851 0 0 1 662.038349 537.935697h275.881012a109.122851 109.122851 0 0 1 110.275557 107.970145v268.964775a109.122851 109.122851 0 0 1-110.275557 109.122851z m55.329896-377.319155a54.561426 54.561426 0 0 0-55.329896-53.792955h-275.881012a54.561426 54.561426 0 0 0-55.329896 53.792955v268.964774a54.561426 54.561426 0 0 0 55.329896 53.792955h275.881012a54.561426 54.561426 0 0 0 55.329896-53.792955zM937.919361 484.911213h-275.881012a109.122851 109.122851 0 0 1-110.275557-107.970145v-268.964775A109.122851 109.122851 0 0 1 662.038349 0.006148h275.881012a109.122851 109.122851 0 0 1 110.275557 107.970145v268.964775a109.122851 109.122851 0 0 1-110.275557 107.970145z m55.329896-377.319155a54.561426 54.561426 0 0 0-55.329896-53.792955h-275.881012a54.561426 54.561426 0 0 0-55.329896 53.792955v268.964774a54.561426 54.561426 0 0 0 55.329896 53.792955h275.881012a54.561426 54.561426 0 0 0 55.329896-53.792955zM386.157338 484.911213H110.276326A109.122851 109.122851 0 0 1 0.000768 377.325303v-268.964775A109.122851 109.122851 0 0 1 110.276326 0.006148h275.881012a109.122851 109.122851 0 0 1 110.275557 107.970145v268.964775a109.122851 109.122851 0 0 1-110.275557 107.970145z m55.329896-377.319155a54.561426 54.561426 0 0 0-55.329896-53.792955H110.276326a54.561426 54.561426 0 0 0-55.329896 53.792955v268.964774a54.561426 54.561426 0 0 0 55.329896 53.792955h275.881012a54.561426 54.561426 0 0 0 55.329896-53.792955z" fill="#999999" p-id="5891"></path></svg>