<?xml version="1.0" standalone="no"?><!DOCTYPE svg PUBLIC "-//W3C//DTD SVG 1.1//EN" "http://www.w3.org/Graphics/SVG/1.1/DTD/svg11.dtd"><svg t="1555411202870" class="icon" style="" viewBox="0 0 1024 1024" version="1.1" xmlns="http://www.w3.org/2000/svg" p-id="1978" xmlns:xlink="http://www.w3.org/1999/xlink" width="200" height="200"><defs><style type="text/css"></style></defs><path d="M727.7 716.5H240.3c-20.1 0-36.3 16.8-36.3 37.8s16.1 37.8 36.3 37.8h487.5c20.1 0 36.3-16.8 36.3-37.8s-16.2-37.8-36.4-37.8z m-487.4-409h193.4c20.1 0 36.3-16.8 36.3-37.8 0-21-16.1-37.8-36.3-37.8H240.3c-20.1 0-36.3 16.8-36.3 37.8 0 21 16.1 37.8 36.3 37.8zM204 511c0 21 16.1 37.8 36.3 37.8h487.5c20.1 0 36.3-16.8 36.3-37.8 0-21-16.1-37.8-36.3-37.8H240.3c-20.2 2.1-36.3 18.9-36.3 37.8z m728 327.8c0 67.8-54.6 121.2-123.9 121.2H215.9C146.6 960 92 906.6 92 838.8V185.2C92 117.4 146.6 64 215.9 64h384.3v201.4c0 67.8 54.6 121.2 123.9 121.2H932v452.2zM656.9 66.1c23.1 4.1 46.2 14.4 63 30.8l178.5 174.7c16.8 16.4 27.3 37 31.5 61.7H724.1c-37.8 0-67.2-30.8-67.2-65.8V66.1z" p-id="1979"></path></svg>