<?xml version="1.0" standalone="no"?><!DOCTYPE svg PUBLIC "-//W3C//DTD SVG 1.1//EN" "http://www.w3.org/Graphics/SVG/1.1/DTD/svg11.dtd"><svg t="1554883062008" class="icon" style="" viewBox="0 0 1024 1024" version="1.1" xmlns="http://www.w3.org/2000/svg" p-id="2576" xmlns:xlink="http://www.w3.org/1999/xlink" width="200" height="200"><defs><style type="text/css"></style></defs><path d="M989.376 826.048l-133.376 149.632c-18.496 20.672-48.384 20.672-66.88 0l-133.376-149.632c-18.24-20.48-18.368-53.824-0.128-74.496l106.88 0L762.496 302.464c0-49.6-40.256-89.856-89.728-89.856-49.728 0-89.984 40.256-89.984 89.856L582.784 512l0 209.6c0 115.776-93.696 209.6-209.472 209.6-115.776 0-209.6-93.888-209.6-209.6L163.712 272.512l-106.88 0C38.656 251.84 38.656 218.56 56.96 198.016l133.44-149.696c18.432-20.672 48.256-20.672 66.752 0l133.376 149.696c18.368 20.544 18.368 53.824 0.256 74.496L283.456 272.512l0 449.152c0 49.6 40.256 89.792 89.792 89.792 49.6 0 89.856-40.192 89.856-89.792L463.104 512 463.104 302.464c0-115.776 93.76-209.6 209.6-209.6 83.392 0 154.752 49.152 188.48 119.744l16.512 43.904 4.48 45.952 0 449.152 107.392 0C1007.744 772.224 1007.616 805.504 989.376 826.048L989.376 826.048zM989.376 826.048" p-id="2577"></path></svg>