<?xml version="1.0" standalone="no"?><!DOCTYPE svg PUBLIC "-//W3C//DTD SVG 1.1//EN" "http://www.w3.org/Graphics/SVG/1.1/DTD/svg11.dtd"><svg t="1553926090073" class="icon" style="" viewBox="0 0 1024 1024" version="1.1" xmlns="http://www.w3.org/2000/svg" p-id="3426" xmlns:xlink="http://www.w3.org/1999/xlink" width="200" height="200"><defs><style type="text/css"></style></defs><path d="M793.6 619.52v-358.4c0-10.24 0-15.36-5.12-25.6l-204.8-204.8C573.44 25.6 568.32 25.6 558.08 25.6H204.8C163.84 25.6 128 61.44 128 102.4v716.8c0 40.96 35.84 76.8 76.8 76.8h312.32c35.84 61.44 102.4 102.4 174.08 102.4 112.64 0 204.8-92.16 204.8-204.8 0-76.8-40.96-143.36-102.4-174.08z m-204.8-506.88l117.76 117.76H588.8V112.64zM491.52 844.8H204.8c-15.36 0-25.6-10.24-25.6-25.6V102.4c0-15.36 10.24-25.6 25.6-25.6h332.8V256c0 15.36 10.24 25.6 25.6 25.6h179.2v312.32c-15.36-5.12-35.84-5.12-51.2-5.12-112.64 0-204.8 92.16-204.8 204.8 0 15.36 5.12 35.84 5.12 51.2z m46.08-51.2c0-87.04 66.56-153.6 153.6-153.6 30.72 0 61.44 10.24 87.04 30.72L563.2 885.76c-15.36-30.72-25.6-61.44-25.6-92.16z m153.6 153.6c-30.72 0-61.44-10.24-87.04-30.72l215.04-215.04c15.36 25.6 30.72 56.32 30.72 87.04-5.12 92.16-71.68 158.72-158.72 158.72z" p-id="3427"></path></svg>