<?xml version="1.0" standalone="no"?><!DOCTYPE svg PUBLIC "-//W3C//DTD SVG 1.1//EN" "http://www.w3.org/Graphics/SVG/1.1/DTD/svg11.dtd"><svg t="1558681907240" class="icon" style="" viewBox="0 0 1024 1024" version="1.1" xmlns="http://www.w3.org/2000/svg" p-id="1966" xmlns:xlink="http://www.w3.org/1999/xlink" width="200" height="200"><defs><style type="text/css"></style></defs><path d="M799.389 144.844c15.796-15.796 37.614-25.571 61.702-25.571 48.174 0 87.273 39.098 87.273 87.273 0 24.087-9.774 45.906-25.571 61.702l-123.404-123.404zM948.364 512c0 241.004-195.36 436.364-436.364 436.364s-436.364-195.36-436.364-436.364 195.36-436.364 436.364-436.364 436.364 195.36 436.364 436.364zM512 162.909c-192.786 0-349.091 156.306-349.091 349.091s156.306 349.091 349.091 349.091 349.091-156.306 349.091-349.091-156.306-349.091-349.091-349.091zM468.364 642.909l-218.182-218.182 43.636-43.636 174.546 174.546 261.818-218.182 43.636 43.636-305.454 261.818zM75.636 206.546c0-48.174 39.098-87.273 87.273-87.273 24.087 0 45.906 9.774 61.702 25.571l-123.404 123.404c-15.796-15.796-25.571-37.614-25.571-61.702z" p-id="1967"></path></svg>