<?xml version="1.0" standalone="no"?><!DOCTYPE svg PUBLIC "-//W3C//DTD SVG 1.1//EN" "http://www.w3.org/Graphics/SVG/1.1/DTD/svg11.dtd"><svg t="1552904551909" class="icon" style="" viewBox="0 0 1024 1024" version="1.1" xmlns="http://www.w3.org/2000/svg" p-id="6676" xmlns:xlink="http://www.w3.org/1999/xlink" width="200" height="200"><defs><style type="text/css"></style></defs><path d="M661.67 246.46c107.73 105.31 111.1 275.88 12 387.88l22.22 21.77c13.67-6.69 30.77-3.37 42.73 8.34L860 783.19c15.38 16.69 15.38 41.77 0 56.8-17.09 15.08-42.73 15.08-58.11 0L680.47 721.31c-12-10.05-13.67-26.75-8.55-41.83l-22.22-21.71C535.13 756.4 362.46 753.08 253 646.05a278.19 278.19 0 0 1 0-399.65c112.86-110.34 295.79-110.34 408.65 0zM287.21 610.91c94 92 246.22 92 338.57 0 94-90.28 94-239.08 0-331-92.35-92-244.51-92-338.57 0-94 90.29-94 239.08 0 331.08z m51.63 155.34h251.34a20.11 20.11 0 1 1 0 40.21H338.83a20.11 20.11 0 1 1 0-40.21z m57.41 70.38h130.7a20.11 20.11 0 1 1 0 40.21H396.24a20.11 20.11 0 1 1 0-40.21z m0 0" p-id="6677"></path></svg>