<?xml version="1.0" standalone="no"?><!DOCTYPE svg PUBLIC "-//W3C//DTD SVG 1.1//EN" "http://www.w3.org/Graphics/SVG/1.1/DTD/svg11.dtd"><svg t="1546938766004" class="icon" style="" viewBox="0 0 1024 1024" version="1.1" xmlns="http://www.w3.org/2000/svg" p-id="2095" xmlns:xlink="http://www.w3.org/1999/xlink" width="200" height="200"><defs><style type="text/css"></style></defs><path d="M512 1024A512.45126 512.45126 0 0 1 28.84517 681.420781a39.376922 39.376922 0 0 1 74.264875-25.988768A433.77617 433.77617 0 0 0 512 945.246157a433.461155 433.461155 0 0 0 409.047463-290.365421 39.376922 39.376922 0 1 1 74.343628 25.988768A512.372506 512.372506 0 0 1 512 1024zM959.006816 397.82819a39.376922 39.376922 0 0 1-37.250568-26.540045 433.224893 433.224893 0 0 0-819.433742-0.236261 39.376922 39.376922 0 0 1-74.422382-25.516246 511.899983 511.899983 0 0 1 968.278506 0.157508 39.298168 39.298168 0 0 1-37.171814 52.135044z" fill="#999999" p-id="2096"></path><path d="M65.071938 161.409152a39.376922 39.376922 0 0 0-39.376921 39.376922v157.507687a39.376922 39.376922 0 0 0 78.753843 0v-157.507687a39.376922 39.376922 0 0 0-39.376922-39.376922zM959.006816 627.789413a39.376922 39.376922 0 0 0-39.376922 39.376922v157.507687a39.376922 39.376922 0 0 0 78.753843 0v-157.507687a39.376922 39.376922 0 0 0-39.376921-39.376922z" fill="#999999" p-id="2097"></path></svg>