<?xml version="1.0" standalone="no"?><!DOCTYPE svg PUBLIC "-//W3C//DTD SVG 1.1//EN" "http://www.w3.org/Graphics/SVG/1.1/DTD/svg11.dtd"><svg t="1551336743834" class="icon" style="" viewBox="0 0 1025 1024" version="1.1" xmlns="http://www.w3.org/2000/svg" p-id="6840" xmlns:xlink="http://www.w3.org/1999/xlink" width="200.1953125" height="200"><defs><style type="text/css"></style></defs><path d="M744.8 867.02h-585.3c-54.1 0-97.9-43.8-97.9-97.9v-522.9c0-54.1 43.8-97.9 97.9-97.9h795.9c-27.8-39.3-73.4-65-125.2-65h-676.8c-84.7 0-153.4 68.7-153.4 153.5v554.1c0 84.8 68.8 141.9 153.6 141.9h676.8c55.7 0 104.3-24.8 131.2-65.8H744.8z m-4.8-642.9c-156.8 0-283.9 127.1-283.9 283.9s127.1 284 283.9 284 284-127.2 284-284-127.1-283.9-284-283.9z m0 529.8c-135.8 0-245.9-110.1-245.9-245.9s110.2-245.9 245.9-245.9 245.9 110.1 245.9 245.9-110.1 245.9-245.9 245.9z m-7.6-238.4h-115.3v32.4h147.8v-242.6h-32.4v210.2z m-504.5-127.6h69.5v404.1h-69.5v-404.1z m-116.9 236.5h69.5v167.5h-69.5v-167.5z m233.7-82.2h69.5v249.8h-69.5v-249.8z" fill="" p-id="6841"></path></svg>