<?xml version="1.0" standalone="no"?><!DOCTYPE svg PUBLIC "-//W3C//DTD SVG 1.1//EN" "http://www.w3.org/Graphics/SVG/1.1/DTD/svg11.dtd"><svg t="1551334916005" class="icon" style="" viewBox="0 0 1194 1024" version="1.1" xmlns="http://www.w3.org/2000/svg" p-id="13990" xmlns:xlink="http://www.w3.org/1999/xlink" width="233.203125" height="200"><defs><style type="text/css"></style></defs><path d="M85.333333 938.666667h1066.666667c25.6 0 42.666667 17.066667 42.666667 42.666666s-17.066667 42.666667-42.666667 42.666667H42.666667c-8.533333 0-25.6-8.533333-34.133334-8.533333 0-8.533333-8.533333-25.6-8.533333-34.133334V42.666667C0 17.066667 17.066667 0 42.666667 0s42.666667 17.066667 42.666666 42.666667V938.666667z m170.666667-725.333334c0-25.6 17.066667-42.666667 42.666667-42.666666h512c25.6 0 42.666667 17.066667 42.666666 42.666666s-17.066667 42.666667-42.666666 42.666667h-512c-25.6 0-42.666667-17.066667-42.666667-42.666667z m0 512c0-25.6 17.066667-42.666667 42.666667-42.666666h682.666666c25.6 0 42.666667 17.066667 42.666667 42.666666s-17.066667 42.666667-42.666667 42.666667h-682.666666c-25.6 0-42.666667-17.066667-42.666667-42.666667z m0-256c0-25.6 17.066667-42.666667 42.666667-42.666666h597.333333c25.6 0 42.666667 17.066667 42.666667 42.666666s-17.066667 42.666667-42.666667 42.666667h-597.333333c-25.6 0-42.666667-17.066667-42.666667-42.666667z" p-id="13991"></path></svg>