<?xml version="1.0" standalone="no"?><!DOCTYPE svg PUBLIC "-//W3C//DTD SVG 1.1//EN" "http://www.w3.org/Graphics/SVG/1.1/DTD/svg11.dtd"><svg t="1552904814609" class="icon" style="" viewBox="0 0 1024 1024" version="1.1" xmlns="http://www.w3.org/2000/svg" p-id="8704" xmlns:xlink="http://www.w3.org/1999/xlink" width="200" height="200"><defs><style type="text/css"></style></defs><path d="M526.915 447.57c-20.772 0-40.663-4.163-56.018-11.725l-306.371-150.774c-20.977-10.313-33.079-26.875-33.198-45.43-0.118-18.761 12.052-35.732 33.388-46.566l309.596-157.21c16.297-8.274 37.34-12.831 59.259-12.831 20.772 0 40.668 4.163 56.023 11.725l306.381 150.779c20.972 10.317 33.070 26.875 33.188 45.425 0.118 18.759-12.047 35.732-33.377 46.566l-309.612 157.21c-16.287 8.274-37.34 12.831-59.259 12.831zM187.126 239.124l306.381 150.784c8.34 4.106 20.516 6.461 33.408 6.461 13.814 0 26.967-2.657 36.086-7.286l309.606-157.21c0.266-0.133 0.522-0.266 0.763-0.399l-306.386-150.779c-8.34-4.106-20.521-6.461-33.413-6.461-13.814 0-26.967 2.652-36.081 7.281l-309.601 157.215c-0.261 0.133-0.517 0.266-0.763 0.394zM463.293 1000.97c-10.583 0-21.658-2.79-32.922-8.279l-0.66-0.338-273.751-143.642c-32.768-16.179-57.441-50.852-57.441-80.809v-387.169c0-27.136 19.917-46.828 47.35-46.828 10.583 0 21.658 2.79 32.922 8.289l0.666 0.333 273.746 143.642c32.773 16.174 57.452 50.852 57.452 80.809v387.169c-0.005 27.131-19.917 46.822-47.36 46.822zM453.14 946.821c2.555 1.229 4.649 1.951 6.292 2.371l0.020-382.208c0-8.269-11.597-26.441-29.076-34.98l-0.66-0.329-273.69-143.616c-2.55-1.225-4.644-1.946-6.282-2.365l-0.020 382.213c0 8.269 11.597 26.439 29.076 34.98l0.655 0.327 273.684 143.606zM610.505 1000.97c-0.005 0-0.005 0 0 0-27.443 0-47.36-19.692-47.36-46.822v-387.169c0-29.962 24.668-64.635 57.441-80.809l274.417-143.98c11.259-5.499 22.333-8.289 32.922-8.289 27.433 0 47.35 19.697 47.35 46.828v387.169c0 29.962-24.668 64.63-57.446 80.809l-274.412 143.98c-11.254 5.494-22.329 8.284-32.911 8.284zM917.77 388.055l-274.35 143.949c-17.481 8.54-29.076 26.711-29.076 34.98v382.218c1.638-0.43 3.743-1.152 6.303-2.381l274.345-143.939c17.481-8.54 29.076-26.711 29.076-34.98v-382.223c-1.638 0.425-3.738 1.147-6.298 2.377z" p-id="8705"></path></svg>