<?xml version="1.0" standalone="no"?><!DOCTYPE svg PUBLIC "-//W3C//DTD SVG 1.1//EN" "http://www.w3.org/Graphics/SVG/1.1/DTD/svg11.dtd"><svg t="1552447273919" class="icon" style="" viewBox="0 0 1024 1024" version="1.1" xmlns="http://www.w3.org/2000/svg" p-id="3633" xmlns:xlink="http://www.w3.org/1999/xlink" width="200" height="200"><defs><style type="text/css"></style></defs><path d="M512 960c-247.68 0-448-200.32-448-448s200.32-448 448-448 448 200.32 448 448-200.32 448-448 448z m0-821.12c-213.76 0-373.12 167.68-373.12 373.12 0 205.44 167.68 373.12 373.12 373.12 205.44 0 373.12-167.04 373.12-373.12 0-205.44-167.68-373.12-373.12-373.12z m-65.92 554.88c-8.96 6.4-21.12 7.04-30.08 0.64-9.6-7.04-15.36-17.92-15.36-30.08V321.92c0-12.16 5.76-23.68 15.36-30.08 9.6-5.76 21.12-5.76 30.08 0.64L684.8 464c8.96 6.4 14.08 17.28 14.08 28.8s-5.12 23.04-14.08 28.8l-238.72 172.16z m0 0" fill="" p-id="3634"></path></svg>