<?xml version="1.0" standalone="no"?><!DOCTYPE svg PUBLIC "-//W3C//DTD SVG 1.1//EN" "http://www.w3.org/Graphics/SVG/1.1/DTD/svg11.dtd"><svg t="1562033133877" class="icon" viewBox="0 0 1416 1024" version="1.1" xmlns="http://www.w3.org/2000/svg" p-id="2057" xmlns:xlink="http://www.w3.org/1999/xlink" width="276.5625" height="200"><defs><style type="text/css"></style></defs><path d="M1386.351884 172.91814L574.451332 993.907597a2.725421 2.725421 0 0 0-0.800123 0.612594 6.826056 6.826056 0 0 1-0.662603 0.800124 102.615868 102.615868 0 0 1-21.965897 14.402227 89.663866 89.663866 0 0 1-10.751662 6.888565 101.940764 101.940764 0 0 1-37.89336 7.388643 100.540547 100.540547 0 0 1-38.330927-7.50116c-4.088132-1.775275-7.326133-5.188302-11.164227-7.326133a97.040006 97.040006 0 0 1-21.79087-14.402227 6.976079 6.976079 0 0 1-0.550085-0.800124c-0.162525-0.275043-0.612595 0-0.787621-0.612595L30.429706 582.981551a101.428185 101.428185 0 1 1 145.422488-141.396865l327.200597 336.302005 739.07679-747.490591a101.315667 101.315667 0 1 1 144.034774 142.52204z m0 0" fill="#21A43D" p-id="2058"></path></svg>