<?xml version="1.0" standalone="no"?><!DOCTYPE svg PUBLIC "-//W3C//DTD SVG 1.1//EN" "http://www.w3.org/Graphics/SVG/1.1/DTD/svg11.dtd"><svg t="1552904312621" class="icon" style="" viewBox="0 0 1077 1024" version="1.1" xmlns="http://www.w3.org/2000/svg" p-id="5636" xmlns:xlink="http://www.w3.org/1999/xlink" width="210.3515625" height="200"><defs><style type="text/css"></style></defs><path d="M538.770088 972.478123l-466.87659-211.422932c-24.736968-9.32352-48.773325-20.479407-71.893498-33.359877 0 26.353763 6.574968 55.617758 30.826897 68.552121l457.175819 207.380944c40.419883 19.185971 57.827379 19.185971 101.642531 0l457.014139-207.380944c22.635134-10.670849 30.88079-41.605532 30.88079-68.444335-29.371781 14.76673-70.977314 35.946749-71.839604 36.108429l-466.930484 207.111478v1.455116zM27.539413 362.730721l461.002234 207.81209c40.689348 19.293757 58.204631 19.293757 102.45093 0l461.002234-207.81209c33.952701-15.95238 35.030565-83.426638 0-102.666502L590.992577 15.766449c-36.270108-21.557271-61.653794-20.425514-102.45093 0L27.539413 260.064219c-35.030565 22.635134-36.162322 83.426638 0 102.666502V362.730721zM540.117418 38.293797c0.538932 0.16168 2.425193 0.431145 2.856338 0.700611l499.589749 270.705427-500.990972 227.483099-505.248532-227.429206L541.572533 38.293797h-1.509009 0.053894z" p-id="5637"></path><path d="M30.826897 610.639334l457.283605 212.878048c40.419883 19.778796 57.881272 19.778796 101.696425 0l457.229711-212.878048c22.635134-10.778635 30.826897-44.138512 30.826898-71.677925-29.425675 15.197876-71.031207 36.862933-71.839605 37.078506l-467.092163 215.572707-467.03827-215.464921c1.616795 0.970077-41.336067-19.132078-71.893498-37.186292 0 26.946588 6.574968 58.420204 30.826897 71.677925" p-id="5638"></path></svg>