<?xml version="1.0" standalone="no"?><!DOCTYPE svg PUBLIC "-//W3C//DTD SVG 1.1//EN" "http://www.w3.org/Graphics/SVG/1.1/DTD/svg11.dtd"><svg t="1552905164594" class="icon" style="" viewBox="0 0 1251 1024" version="1.1" xmlns="http://www.w3.org/2000/svg" p-id="10958" xmlns:xlink="http://www.w3.org/1999/xlink" width="244.3359375" height="200"><defs><style type="text/css"></style></defs><path d="M1100.913778 0H150.641778C66.616889 0 0 58.254222 0 131.697778v589.937778C0 795.079111 66.616889 853.333333 150.641778 853.333333h950.272C1184.938667 853.333333 1251.555556 795.079111 1251.555556 721.635556V131.697778C1251.555556 58.254222 1184.938667 0 1100.913778 0zM1194.666667 735.459556c0 34.474667-30.435556 60.984889-69.973334 60.984888H126.862222C87.324444 796.444444 56.888889 769.934222 56.888889 735.459556V117.873778C56.888889 83.399111 87.324444 56.888889 126.862222 56.888889h997.831111c39.537778 0 69.973333 26.510222 69.973334 60.984889v617.585778z m-156.672 221.639111c22.869333 0 42.894222 15.587556 42.894222 33.450666 0 17.806222-20.024889 33.450667-42.894222 33.450667H156.672C133.802667 1024 113.777778 1008.355556 113.777778 990.549333c0-17.863111 20.024889-33.450667 42.894222-33.450666H391.395556v-17.863111c0-15.644444 17.123556-29.013333 37.205333-29.013334h337.578667c20.081778 0 37.205333 13.368889 37.205333 29.013334v17.863111h234.666667z m-76.686223-523.491556l-72.760888 116.337778-10.808889 20.195555 86.243555 134.030223c2.730667 2.503111 2.730667 2.503111 2.730667 5.063111v2.503111c2.673778 15.189333-8.078222 27.818667-24.234667 27.818667h-231.708444c-16.213333 0-26.965333-15.189333-24.291556-27.818667v-2.503111c0-2.56 2.730667-2.56 2.730667-5.12l59.278222-98.588445 21.560889-35.384889-10.808889-20.195555-72.760889-116.337778c-10.808889-15.132444 2.730667-35.384889 21.617778-35.384889h231.651556c18.887111 0 32.312889 20.252444 21.560888 35.384889zM739.555556 530.545778l-23.722667 38.343111H349.240889C343.950222 568.888889 341.333333 566.499556 341.333333 561.720889c0-83.854222 60.643556-155.704889 142.392889-182.044445-47.445333-26.339556-79.075556-71.850667-79.075555-124.586666C404.650667 176.014222 473.201778 113.777778 560.241778 113.777778c87.04 0 155.591111 62.293333 155.591111 141.312 0 55.125333-31.687111 100.636444-79.075556 124.586666 7.850667 2.389333 18.432 4.778667 26.339556 9.557334 0 9.614222 2.616889 19.171556 7.907555 28.728889L739.555556 530.602667z" p-id="10959"></path></svg>