<?xml version="1.0" standalone="no"?><!DOCTYPE svg PUBLIC "-//W3C//DTD SVG 1.1//EN" "http://www.w3.org/Graphics/SVG/1.1/DTD/svg11.dtd"><svg t="1551856916885" class="icon" style="" viewBox="0 0 1107 1024" version="1.1" xmlns="http://www.w3.org/2000/svg" p-id="2679" xmlns:xlink="http://www.w3.org/1999/xlink" width="216.2109375" height="200"><defs><style type="text/css"></style></defs><path d="M742.681183 555.580253l-158.203983-167.177115a38.067833 38.067833 0 0 0-55.92758 0l-158.203983 167.177115a43.493736 43.493736 0 0 0-0.81574 59.10402 38.067833 38.067833 0 0 0 55.964659 0.828099l0.81574-0.865178 90.645938-95.787568v463.339915c0 23.087894 17.71143 41.800459 39.550996 41.800459s39.550996-18.712565 39.550996-41.800459V518.859626l90.683017 95.824647a38.067833 38.067833 0 0 0 55.92758 0.865178 43.493736 43.493736 0 0 0 0.815739-59.104019l-0.815739-0.865179z" fill="" p-id="2680"></path><path d="M850.346409 831.893398H711.917924c-21.839565 0-39.550996-18.712565-39.550996-41.788099s17.71143-41.800459 39.550996-41.800459h138.428485c98.135908 0 177.979481-84.379578 177.979481-188.077345 0-98.037031-68.447942-175.606421-160.910754-183.467181-18.737284-1.55732-33.85318-16.846252-36.139723-36.572312C814.330284 193.911116 696.171684 83.588558 556.50723 83.588558s-257.823054 110.322559-274.768184 256.587085c-2.286542 19.775498-17.402438 35.014991-36.139722 36.572311C153.136512 384.608715 79.101992 462.252263 79.101992 560.227495c0 103.697767 79.843573 188.077345 177.979481 188.077345h138.428485c21.851925 0 39.550996 18.712565 39.550996 41.800459s-17.699071 41.788099-39.550996 41.788099H257.081473c-141.753241 0-257.081473-121.866506-257.081473-271.665903 0-129.022764 88.656029-236.205963 208.248352-262.161303C242.571201 126.068799 387.179529 0 556.50723 0s313.936029 126.068799 348.258877 298.066192c119.592323 25.955341 202.698853 133.13854 202.698854 262.161303-0.037079 149.799396-115.365311 271.665902-257.118552 271.665903z" fill="" p-id="2681"></path></svg>