<?xml version="1.0" standalone="no"?><!DOCTYPE svg PUBLIC "-//W3C//DTD SVG 1.1//EN" "http://www.w3.org/Graphics/SVG/1.1/DTD/svg11.dtd"><svg t="1547608681106" class="icon" style="" viewBox="0 0 1024 1024" version="1.1" xmlns="http://www.w3.org/2000/svg" p-id="1654" xmlns:xlink="http://www.w3.org/1999/xlink" width="200" height="200"><defs><style type="text/css"></style></defs><path d="M709.12 465.92l-176.64-176.64c-5.12-5.12-12.8-7.68-20.48-7.68-7.68 0-12.8 2.56-20.48 7.68l-176.64 176.64c-10.24 10.24-10.24 25.6 0 35.84 10.24 10.24 25.6 10.24 35.84 0l133.12-133.12V921.6c0 15.36 10.24 25.6 25.6 25.6s25.6-10.24 25.6-25.6V368.64l133.12 133.12c10.24 10.24 25.6 10.24 35.84 0 12.8-7.68 12.8-25.6 5.12-35.84zM768 128H256C199.68 128 153.6 174.08 153.6 230.4v512c0 56.32 46.08 102.4 102.4 102.4h76.8v-51.2h-76.8c-28.16 0-51.2-23.04-51.2-51.2V230.4c0-28.16 23.04-51.2 51.2-51.2h512c28.16 0 51.2 23.04 51.2 51.2v512c0 28.16-23.04 51.2-51.2 51.2h-76.8v51.2h76.8c56.32 0 102.4-46.08 102.4-102.4V230.4c0-56.32-46.08-102.4-102.4-102.4z" p-id="1655"></path></svg>