<?xml version="1.0" standalone="no"?><!DOCTYPE svg PUBLIC "-//W3C//DTD SVG 1.1//EN" "http://www.w3.org/Graphics/SVG/1.1/DTD/svg11.dtd"><svg t="1553740025683" class="icon" style="" viewBox="0 0 1024 1024" version="1.1" xmlns="http://www.w3.org/2000/svg" p-id="1988" xmlns:xlink="http://www.w3.org/1999/xlink" width="200" height="200"><defs><style type="text/css"></style></defs><path d="M756.096 768.576l-0.448-0.256-0.32-0.64 0.32-0.704h1.152l0.32 0.704-0.32 0.64z" fill="#9F9FA0" p-id="1989"></path><path d="M817.856 1009.728a13.568 13.568 0 0 1-7.36-2.24 13.44 13.44 0 0 1-6.272-9.344 49.216 49.216 0 0 0-48.384-41.728 49.28 49.28 0 0 0-48.256 41.728 13.952 13.952 0 0 1-17.408 11.008 251.008 251.008 0 0 1-106.88-60.352 13.76 13.76 0 0 1-0.512-19.648 50.56 50.56 0 0 0 7.36-58.24 50.688 50.688 0 0 0-57.792-25.408 12.672 12.672 0 0 1-10.688-1.28 13.632 13.632 0 0 1-6.528-8.256 251.84 251.84 0 0 1 2.88-146.24 13.888 13.888 0 0 1 7.36-8.384 14.272 14.272 0 0 1 11.008-0.256 46.72 46.72 0 0 0 18.432 3.712c17.344 0 33.344-8.96 42.816-23.808a50.752 50.752 0 0 0-6.08-62.272 13.952 13.952 0 0 1 0.704-20.288 253.184 253.184 0 0 1 97.472-52.16 14.528 14.528 0 0 1 11.52 1.792 13.952 13.952 0 0 1 6.08 9.792c3.328 24.96 24.192 43.84 48.704 43.84s45.504-18.816 48.768-43.968a13.888 13.888 0 0 1 5.952-9.792 13.952 13.952 0 0 1 11.456-1.856 251.136 251.136 0 0 1 115.776 69.184 13.952 13.952 0 0 1 1.088 17.728 50.88 50.88 0 0 0-3.84 54.016 50.56 50.56 0 0 0 48.64 27.008 13.824 13.824 0 0 1 14.656 10.304 255.552 255.552 0 0 1 0.64 123.776 14.72 14.72 0 0 1-6.72 8.96 14.592 14.592 0 0 1-11.136 0.896 50.56 50.56 0 0 0-58.176 21.312 50.368 50.368 0 0 0 9.216 65.152 13.568 13.568 0 0 1 4.992 9.984 14.08 14.08 0 0 1-4.032 10.368 251.52 251.52 0 0 1-111.424 64.512 18.112 18.112 0 0 1-4.032 0.448z m-61.824-81.152c32.384 0 60.416 20.224 71.616 49.856a220.16 220.16 0 0 0 75.968-44.032 78.4 78.4 0 0 1-3.968-89.856 78.144 78.144 0 0 1 75.456-36.032 228.032 228.032 0 0 0-0.96-86.72 79.168 79.168 0 0 1-64-114.88c-23.232-22.4-51.2-39.232-81.472-49.728-10.624 30.72-39.488 52.352-72.64 52.352-33.024 0-61.76-21.632-72.384-52.096-22.528 7.68-43.84 19.2-62.784 33.664 16.256 25.024 16.896 58.496 0.32 84.736a78.464 78.464 0 0 1-80.128 35.328 225.28 225.28 0 0 0-1.984 105.152 78.4 78.4 0 0 1 75.776 41.536 78.08 78.08 0 0 1-3.008 79.104c21.376 18.112 46.208 32.256 72.64 41.344a76.544 76.544 0 0 1 71.552-49.728z" fill="#9F9FA0" p-id="1990"></path><path d="M756.096 849.728a82.112 82.112 0 0 1 0-164.096c45.248 0 82.112 36.736 82.112 82.048s-36.864 82.048-82.112 82.048z m0-136.384c-29.888 0-54.4 24.384-54.4 54.336s24.512 54.336 54.4 54.336a54.4 54.4 0 1 0 0-108.672z" fill="#9F9FA0" p-id="1991"></path><path d="M750.144 194.048h83.968v-50.56A139.264 139.264 0 0 0 694.784 4.224h-50.496v83.968a105.92 105.92 0 0 0 105.856 105.856z" fill="#9F9FA0" p-id="1992"></path><path d="M750.144 260.864a172.8 172.8 0 0 1-172.608-172.736V4.224H156.736A139.264 139.264 0 0 0 17.472 143.488v737.088c0 76.928 62.336 139.328 139.264 139.328h341.568a346.624 346.624 0 0 1-89.6-239.168H195.456a66.88 66.88 0 0 1 0-133.696H437.76a347.2 347.2 0 0 1 100.096-131.072h-342.4a66.88 66.88 0 0 1 0-133.696h460.544c33.728 0 61.824 25.28 66.112 57.92a350.976 350.976 0 0 1 111.872 7.104v-186.24H750.08v-0.192z" fill="#9F9FA0" p-id="1993"></path></svg>