<?xml version="1.0" standalone="no"?><!DOCTYPE svg PUBLIC "-//W3C//DTD SVG 1.1//EN" "http://www.w3.org/Graphics/SVG/1.1/DTD/svg11.dtd"><svg t="1559812897493" class="icon" style="" viewBox="0 0 1024 1024" version="1.1" xmlns="http://www.w3.org/2000/svg" p-id="1303" xmlns:xlink="http://www.w3.org/1999/xlink" width="200" height="200"><defs><style type="text/css"></style></defs><path d="M375.718093 61.1328a218.99264 218.99264 0 0 1 140.98432-31.06816c45.056 5.07904 87.77728 25.25184 121.73312 55.05024 39.6288 34.65216 67.93216 81.24416 83.39456 131.35872a319.30368 319.30368 0 0 1-8.11008 211.57888h-103.60832a47.45216 47.45216 0 0 0-27.5456 7.9872c-13.33248 8.92928-21.21728 25.3952-19.37408 41.39008 0.6144 7.04512 3.56352 13.55776 6.47168 19.90656 9.78944 22.03648 19.57888 44.07296 29.34784 66.1504-40.98048 23.26528-89.4976 33.71008-136.31488 27.19744-48.57856-6.3488-94.06464-30.0032-129.26976-63.75424-39.81312-37.888-66.88768-88.18688-79.29856-141.53728-14.56128-61.50144-10.79296-127.30368 11.55072-186.49088 21.01248-55.84896 58.73664-106.47552 110.03904-137.76896z" p-id="1304"></path><path d="M611.156173 473.78432H1024.073933c-12.9024 29.0816-25.74336 58.20416-38.76864 87.2448-111.8208-0.06144-223.60064-0.02048-335.42144-0.02048-12.94336-29.04064-25.82528-58.14272-38.72768-87.22432zM675.688653 619.13088l283.91424-0.02048-38.76864 87.2448c-68.8128-0.04096-137.66656 0-206.47936-0.02048-12.86144-29.0816-25.84576-58.12224-38.66624-87.20384zM369.144013 681.65632a998.42048 998.42048 0 0 1 285.2864 6.71744c5.44768 11.776 10.50624 23.71584 15.872 35.51232 4.77184 10.62912 14.0288 18.80064 24.71936 23.22432-2.10944 6.3488-3.4816 13.02528-2.88768 19.74272 0.512 9.07264 4.9152 17.22368 8.47872 25.37472l47.06304 105.92256a45.42464 45.42464 0 0 0 40.81664 26.29632c17.98144-0.02048 35.96288 0.06144 53.94432-0.04096a45.3632 45.3632 0 0 0 39.56736-26.07104c14.41792-32.256 28.69248-64.59392 43.04896-96.89088 23.69536 21.58592 44.17536 48.29184 52.49024 79.72864 3.93216 16.67072 6.69696 35.20512-0.59392 51.36384-7.70048 16.01536-24.576 24.65792-40.52992 30.5152-29.77792 10.40384-61.19424 14.848-92.32384 19.23072-87.83872 12.0832-176.70144 12.16512-265.17504 13.1072-99.92192-0.1024-199.8848 1.04448-299.76576-2.27328-46.34624-1.65888-92.672-4.66944-138.71104-10.38336-31.06816-4.05504-62.38208-8.23296-92.22144-18.20672-15.74912-5.55008-32.29696-13.16864-41.43104-27.87328-8.37632-13.4144-7.35232-30.08512-5.07904-45.07648 5.57056-33.87392 25.8048-63.488 50.21696-86.81472 35.06176-33.42336 78.35648-56.85248 122.92096-75.07968 62.07488-25.00608 127.91808-39.89504 194.29376-48.0256z" p-id="1305"></path><path d="M740.200653 764.45696h154.8288c-17.14176 38.74816-34.36544 77.47584-51.56864 116.20352h-51.65056l-51.6096-116.20352z" p-id="1306"></path></svg>