<?xml version="1.0" standalone="no"?><!DOCTYPE svg PUBLIC "-//W3C//DTD SVG 1.1//EN" "http://www.w3.org/Graphics/SVG/1.1/DTD/svg11.dtd"><svg t="1552905254012" class="icon" style="" viewBox="0 0 1024 1024" version="1.1" xmlns="http://www.w3.org/2000/svg" p-id="12329" xmlns:xlink="http://www.w3.org/1999/xlink" width="200" height="200"><defs><style type="text/css"></style></defs><path d="M536.249799 551.127136c51.788503-38.188764 85.393879-99.615788 85.393879-168.899758 0-115.823935-93.89653-209.718419-209.720466-209.718419-115.824959 0-209.719442 93.894484-209.719442 209.718419 0 69.282946 33.604352 130.709971 85.393879 168.898735C155.943167 601.248673 62.389444 728.644155 62.389444 877.893364l69.90614 0c0-154.429185 125.192304-279.645025 279.626605-279.645025 154.433278 0 279.626605 125.19742 279.626605 279.626605l69.90614 0C761.455957 728.625736 667.901211 601.248673 536.249799 551.127136zM423.716816 528.562211c-3.918239-0.12996-7.844665-0.220011-11.793604-0.220011-3.948939 0-7.875365 0.089028-11.792581 0.218988-75.562976-6.007831-135.009903-69.225641-135.009903-146.332786 0-81.07655 65.724911-146.802484 146.802484-146.802484 81.077573 0 146.803507 65.725934 146.803507 146.802484C558.727743 459.335546 499.277746 522.55438 423.716816 528.562211z" p-id="12330"></path><path d="M736.402351 524.723789c51.789527-38.188764 85.392856-99.615788 85.392856-168.898735 0-115.823935-93.89346-209.719442-209.717396-209.719442l-0.001023 62.915935c81.07655 0 146.802484 65.725934 146.802484 146.802484 0 77.107145-59.446927 140.324956-135.00888 146.332786-3.918239-0.128937-7.844665-0.217964-11.792581-0.217964l0 69.90614c154.434302 0 279.626605 125.21584 279.626605 279.645025l69.905116 0C961.609533 702.241832 868.056833 574.84635 736.402351 524.723789z" p-id="12331"></path></svg>